<svg xmlns="http://www.w3.org/2000/svg" viewBox="0 0 100 100" width="100" height="100">
  <defs>
    <linearGradient id="logo-grad" x1="0%" y1="0%" x2="100%" y2="100%">
      <stop offset="0%" stop-color="#be123c" />
      <stop offset="100%" stop-color="#f43f5e" />
    </linearGradient>
  </defs>
  <!-- Cap Shape -->
  <path d="M 50 15 L 85 32 L 50 49 L 15 32 Z" fill="url(#logo-grad)" />
  <path d="M 32 41 L 32 65 C 32 75, 68 75, 68 65 L 68 41" fill="none" stroke="url(#logo-grad)" stroke-width="8" stroke-linecap="round" stroke-linejoin="round" />
  <!-- Tassel -->
  <path d="M 85 32 L 85 58 C 85 62, 80 65, 80 70" fill="none" stroke="#be123c" stroke-width="3" stroke-linecap="round" />
  <circle cx="80" cy="72" r="3" fill="#be123c" />
  <!-- Book Shape -->
  <path d="M 22 75 Q 50 82 50 92 Q 50 82 78 75 Q 82 75 82 72 L 82 55 Q 50 62 50 72 Q 50 62 18 55 L 18 72 Q 18 75 22 75 Z" fill="url(#logo-grad)" opacity="0.9"/>
</svg>
